<svg width="195" height="189" viewBox="0 0 195 189" fill="none" xmlns="http://www.w3.org/2000/svg">
<g clip-path="url(#clip0_67_1619)">
<g opacity="0.3">
<path d="M66.1218 167.289C76.2099 167.289 84.0839 169.267 85.0607 169.64C85.9251 169.8 86.5881 170.463 86.5881 171.387C86.5881 172.18 85.9843 173.116 85.0607 173.116L84.2556 173.004C83.2728 172.743 60.1542 166.46 41.0968 176.201C40.7535 176.361 40.493 176.361 40.4042 176.533L39.6819 176.865C37.1184 177.889 34.5194 179.589 32.3881 181.62C31.9559 182.082 31.7251 182.242 31.3758 182.414C29.1261 184.433 26.9948 186.796 25.6686 189.206C25.0944 189.982 23.9103 190.314 23.1881 189.71C22.4362 189.206 22.0928 188.081 22.5842 187.459C24.5201 184.516 26.9948 181.62 29.4754 179.47L30.1384 179.05C32.619 176.687 35.3542 175.029 38.0953 173.815C38.4978 173.542 38.7583 173.542 38.93 173.323L39.2497 173.163C48.213 168.639 57.8985 167.283 66.1159 167.283L66.1218 167.289Z" fill="#2D5E4E"/>
<path d="M85.0607 169.148C85.41 169.148 85.8126 169.26 86.156 169.639C86.8191 170.172 86.8191 171.387 86.3277 172.091L85.9843 172.405C85.5817 173.169 72.0598 196.704 48.3906 202.957C47.4671 203.088 46.8928 203.159 46.3126 203.419C44.9036 203.751 43.5478 204.083 42.0737 204.083C38.267 204.734 33.7972 204.574 29.4754 203.579C28.463 203.419 27.9775 202.454 28.1492 201.56C28.463 200.636 29.2149 200.062 30.3101 200.221C34.2057 201.145 38.0065 201.264 41.902 200.642C43.1393 200.642 44.2346 200.221 45.4779 200.067C46.058 199.848 46.8928 199.694 47.6447 199.694C69.9285 193.766 83.1011 170.682 83.2787 170.463L83.6813 169.799C84.0839 169.266 84.5161 169.148 85.0607 169.148Z" fill="#2D5E4E"/>
<path d="M60.3851 132.887C61.3974 132.887 62.0546 133.378 62.1138 134.302C62.2855 135.368 61.6224 136.233 60.6456 136.233C60.3851 136.274 34.6142 139.52 20.2871 157.701C19.0498 159.4 17.7237 160.97 16.7113 162.764C14.8109 166.122 13.5676 169.64 12.502 173.992C12.3303 174.857 11.4956 175.52 10.5128 175.277C9.50635 175.195 8.92615 174.2 9.18664 173.246C10.2582 168.443 11.6672 164.623 13.6564 161.236C14.8109 159.157 16.2199 157.387 17.6349 155.515C32.9683 136.239 59.2306 133.005 60.3851 132.893V132.887Z" fill="#2D5E4E"/>
<path d="M60.3851 132.887H60.7284C61.6224 133.005 62.2855 133.882 62.1138 134.705C62.0546 135.871 58.828 160.442 41.2449 175.858C40.9252 176.361 40.2325 176.699 39.599 176.87C39.2557 177.101 39.0247 177.244 38.9359 177.403C36.6922 179.222 34.4721 180.72 32.3941 181.756C31.9619 182.248 31.4705 182.42 30.9791 182.42C28.7294 183.574 25.5029 185.102 21.7849 185.848C20.8614 186.109 19.9378 185.475 19.6241 184.522C19.3932 183.568 20.0266 182.745 21.039 182.573C24.526 181.75 27.6697 180.341 29.801 179.216L30.316 179.056C32.8854 177.557 34.9575 176.361 36.8579 174.413L37.3493 173.992L38.7643 173.548C55.5127 158.737 58.7392 134.533 58.7392 134.302C58.9701 133.378 59.722 132.887 60.3851 132.887Z" fill="#2D5E4E"/>
<path d="M23.7742 108.186C24.2656 108.186 24.9227 108.517 25.272 109.009C25.6746 110.045 25.5029 111.04 24.6089 111.549C24.2656 111.579 1.97577 124.394 -4.25235 145.779C-5.31799 149.013 -5.80938 151.53 -5.80938 153.899C-6.3126 157.707 -6.06987 161.236 -5.47785 164.955C-5.4068 165.778 -6.06987 166.625 -6.97567 166.856C-8.05908 166.856 -8.79319 166.294 -8.95304 165.417C-9.45626 161.568 -9.63387 157.706 -9.21353 153.691C-9.21353 150.955 -8.72214 148.184 -7.46704 144.767C-0.936996 121.943 21.9507 109.009 22.9276 108.517C23.1881 108.345 23.419 108.186 23.7682 108.186H23.7742Z" fill="#2D5E4E"/>
<path d="M23.7742 108.186C24.5261 108.186 25.1536 108.849 25.5029 109.5C25.6746 110.537 32.5362 135.872 20.9502 156.883C20.8614 157.387 20.6897 157.707 20.2871 157.878C19.6241 159.738 18.2979 161.236 17.0547 162.61V163.054C16.7113 163.717 16.3028 163.919 15.9062 163.919C13.396 167.336 10.6016 170.35 7.36915 172.34C6.44559 173.003 5.46873 172.583 4.94775 171.92C4.36756 170.984 4.62805 170.06 5.46873 169.468C8.52359 167.336 11.1759 164.754 13.396 161.437L14.2307 160.774C15.9062 158.915 16.883 157.588 17.3152 156.22L17.7178 154.893H18.0315C28.7294 134.965 22.1876 110.714 22.0987 110.335C21.8383 109.5 22.4421 108.517 23.2532 108.345C23.4249 108.186 23.5966 108.186 23.7742 108.186Z" fill="#2D5E4E"/>
<path d="M-19.5562 159.821C10.6845 159.821 35.1884 184.433 35.1884 214.524C35.1884 244.614 10.6845 269.114 -19.5562 269.114C-49.7969 269.114 -74.0996 244.744 -74.0996 214.524C-74.0996 184.303 -49.5364 159.821 -19.5562 159.821ZM-19.5562 262.28C6.76527 262.28 28.3269 240.824 28.3269 214.524C28.3269 188.223 6.75935 166.625 -19.5562 166.625C-45.8718 166.625 -67.2143 188.081 -67.2143 214.524C-67.2143 240.966 -45.8244 262.28 -19.5562 262.28Z" fill="#2D5E4E"/>
<path d="M131.422 179.216C163.711 179.216 193.23 212.007 194.526 213.487C195.136 214.151 195.047 215.146 194.384 215.85C193.721 216.431 192.567 216.431 191.904 215.767C191.732 215.347 162.208 182.574 131.245 182.574C130.067 182.574 128.735 182.745 127.325 182.947C112.247 184.273 99.3286 193.891 88.8083 211.29C88.3169 212.173 87.3104 212.445 86.4164 211.794C85.7534 211.361 85.41 210.295 85.9251 209.561C96.9368 191.149 110.867 180.868 127.095 179.471C128.592 179.21 129.889 179.21 131.422 179.21V179.216Z" fill="#2D5E4E"/>
<path d="M126.029 62.1885C128.912 62.1885 130.641 62.4194 130.901 62.4194C131.967 62.4194 132.802 63.2426 132.571 64.1665C132.571 65.0726 131.819 65.6648 130.901 65.6648C130.238 65.6648 82.6097 63.2426 61.8829 88.1571C52.1973 99.9244 49.8648 115.796 54.82 135.54C54.9917 136.405 54.5891 137.4 53.6715 137.69C52.6887 137.909 51.7652 137.4 51.5343 136.405C46.3126 115.553 48.9412 98.3965 59.2306 86.1376C77.2223 64.3204 112.91 62.1885 126.029 62.1885Z" fill="#2D5E4E"/>
<path d="M131.251 62.5913C132.056 62.5913 132.896 63.2427 132.896 64.1607C133.068 66.2393 135.46 114.226 108.937 136.067C96.5401 146.265 79.4483 148.782 58.4847 143.346C57.5907 143.275 56.9868 142.238 57.419 141.415C57.5907 140.408 58.4018 139.757 59.4082 140.177C79.3595 145.27 95.1311 143.121 106.889 133.373C131.914 112.699 129.492 64.824 129.404 64.3206C129.404 63.4974 130.067 62.5913 131.073 62.5913H131.245H131.251Z" fill="#2D5E4E"/>
<path d="M102.301 88.5776C103.224 88.5776 104.236 88.5776 105.213 88.7079L106.539 88.8678L106.711 90.3543C107.694 101.802 102.733 114.232 93.7102 123.317C84.5693 132.431 72.5512 137.477 60.7284 136.28L59.4023 136.239L59.2306 134.711C58.3071 123.062 62.8657 111.052 72.1486 101.808C80.5376 93.4456 91.4664 88.5836 102.306 88.5836L102.301 88.5776ZM103.313 92.0658C93.1064 91.6039 82.6749 96.2468 74.6292 104.277C66.4415 112.367 62.1197 122.648 62.5519 133C72.8176 133 83.2787 128.819 91.2948 120.77C99.3345 112.983 103.721 102.127 103.313 92.0599V92.0658Z" fill="#2D5E4E"/>
<path d="M-19.1537 0C-18.7393 0 -18.2479 0 -18.0762 0.33164C-16.4185 1.69965 19.2155 34.1175 15.9002 68.1875C14.3136 84.3076 4.04783 98.0648 -14.5122 109.009C-15.347 109.5 -16.4185 109.341 -16.8329 108.517C-17.2533 107.593 -16.9928 106.516 -16.3416 105.994C1.31267 95.6722 11.0041 82.8212 12.4132 67.7671C15.7285 35.4085 -20.0654 3.3164 -20.2193 2.9966C-20.9712 2.37478 -21.0541 1.36801 -20.391 0.66328C-20.1483 0 -19.5563 0 -19.1537 0Z" fill="#2D5E4E"/>
<path d="M113.75 126.959C113.75 126.959 113.922 126.959 114.07 127.16C114.822 127.249 132.577 131.181 140.101 145.774C144.832 155.705 143.991 167.662 137.449 181.993C136.958 182.746 135.975 183.065 135.14 182.746C134.388 182.242 133.873 181.206 134.388 180.412C140.445 167.295 141.25 156.22 136.958 147.307C130.238 134.214 113.662 130.352 113.431 130.352C112.418 130.192 111.933 129.286 112.104 128.374C112.247 127.569 112.91 126.959 113.744 126.959H113.75Z" fill="#2D5E4E"/>
<path d="M124.359 108.186H124.673C125.94 108.517 151.545 112.106 162.468 132.508C170.022 146.81 168.436 165.281 157.596 187.631C157.252 188.407 156.27 188.78 155.435 188.407C154.6 187.963 154.198 186.92 154.6 186.103C164.807 164.748 166.453 147.301 159.413 134.208C149.384 115.375 124.359 111.697 124.182 111.567C123.288 111.567 122.714 110.703 122.714 109.749C122.856 108.843 123.525 108.18 124.359 108.18V108.186Z" fill="#2D5E4E"/>
<path d="M120.47 117.169H120.813C121.618 117.341 142.002 121.481 151.717 138.987C158.401 151.168 158.259 166.625 151.107 184.765C150.793 185.76 149.811 186.062 148.887 185.76C148.052 185.47 147.561 184.433 147.881 183.568C154.594 166.294 154.772 151.992 148.715 140.716C139.782 124.466 120.292 120.575 120.144 120.527C119.309 120.284 118.646 119.402 118.788 118.537C118.96 117.714 119.712 117.169 120.464 117.169H120.47Z" fill="#2D5E4E"/>
<path d="M35.0168 51.647C38.2788 51.647 41.5054 52.0674 44.9036 53.2163C55.1634 56.5742 63.1262 65.7772 68.4307 80.4404C68.7445 81.4768 68.259 82.4007 67.4184 82.6908C66.4356 83.0521 65.6008 82.4895 65.2811 81.6959C60.2075 68.0098 53.0854 59.476 43.6603 56.4498C29.5642 51.7358 15.2076 60.9803 15.0596 61.152C14.3136 61.6436 13.3012 61.3119 12.7566 60.4769C12.2356 59.8136 12.4132 58.6173 13.248 58.1258C13.6505 57.7942 23.2532 51.6529 35.0108 51.6529L35.0168 51.647Z" fill="#2D5E4E"/>
<path d="M39.747 26.2886C43.4058 26.2886 47.3013 26.709 51.2797 27.9053C66.6132 32.5068 78.5485 46.8088 86.7421 70.2664C87.0026 71.06 86.6 72.0371 85.7593 72.3688C84.8358 72.6589 83.6813 72.2503 83.5096 71.285C75.7245 49.077 64.5411 35.4087 50.2969 31.2573C29.801 25.1278 9.67802 40.1701 9.50633 40.1701C8.69525 40.7445 7.68881 40.6616 7.02574 39.8384C6.45147 39.1337 6.70604 37.9789 7.42831 37.4755C8.17426 36.9425 22.448 26.2886 39.747 26.2886Z" fill="#2D5E4E"/>
<path d="M37.1776 38.6421C40.7535 38.6421 44.4122 39.1336 48.2189 40.17C61.3915 43.818 72.3203 54.9635 80.1883 72.8306C80.5317 73.7841 80.1883 74.7316 79.3536 75.0633C78.5425 75.3949 77.3644 75.1936 77.0506 74.2282C69.4964 57.3561 59.5503 47.0456 47.2125 43.3561C29.4813 38.3104 12.9046 49.2368 12.8217 49.2368C12.0106 49.829 11.0042 49.5684 10.5128 48.8637C9.8497 48.0405 10.0806 47.0456 10.8325 46.4712C11.4955 46.0507 22.7677 38.6421 37.1835 38.6421H37.1776Z" fill="#2D5E4E"/>
<path d="M81.2599 144.435C97.4341 144.435 110.607 157.381 110.607 173.246C110.607 189.112 97.4341 202.271 81.2599 202.271C73.9662 202.271 67.4243 199.819 62.4631 194.975L64.7661 192.695C69.1766 196.704 74.8009 198.812 81.254 198.812C95.5218 198.812 107.031 187.335 107.031 173.246C107.031 159.158 95.5277 147.811 81.254 147.811C68.5965 147.811 57.644 157.387 56.0041 170.173L52.6887 169.64C54.5891 155.308 66.8441 144.435 81.254 144.435H81.2599Z" fill="#2D5E4E"/>
<path d="M22.9335 85.0122C30.6298 85.0122 37.8407 88.0384 43.4057 93.4335C54.5891 104.579 54.5891 123.092 43.0624 134.527C38.0183 139.591 31.4705 142.528 24.6681 142.86L24.6148 139.383C30.6416 139.093 36.1179 136.73 40.5877 132.218C50.7942 122.109 50.7942 105.805 40.9311 95.7372C36.1179 91.0528 29.8069 88.3701 22.9394 88.3701C16.0778 88.3701 9.59511 91.0942 4.63393 96.1577C-4.41815 105.07 -5.14041 119.402 2.64473 129.855L-0.00755024 131.874C-8.94123 120.279 -7.96438 103.827 2.29544 93.8362C7.86049 88.0384 15.1542 85.0122 22.9335 85.0122Z" fill="#2D5E4E"/>
</g>
</g>
<defs>
<clipPath id="clip0_67_1619">
<rect width="429" height="429" fill="white" transform="translate(-234)"/>
</clipPath>
</defs>
</svg>
