<svg width="216" height="189" viewBox="0 0 216 189" fill="none" xmlns="http://www.w3.org/2000/svg">
<g clip-path="url(#clip0_67_1486)">
<g opacity="0.3">
<path d="M214.444 99.4327C214.846 99.4327 215.267 99.5926 215.598 99.7643C216.344 100.297 216.504 101.381 215.93 102.127C215.758 102.459 199.371 123.684 203.083 146.81V147.473C203.083 148.557 203.243 149.534 203.503 150.819C204.066 151.524 204.066 152.098 204.066 152.696C204.918 155.711 206.072 159.4 208.796 163.161C209.299 163.872 209.127 164.949 208.393 165.411C207.641 166.116 206.647 165.915 205.901 165.121C203.089 160.899 201.508 156.789 200.697 153.354L200.507 152.939V152.359L200.194 152.098V151.986C199.85 150.416 199.513 149.001 199.513 147.473C195.706 122.642 212.443 101.132 213.106 100.019C213.437 99.7584 213.941 99.4268 214.444 99.4268V99.4327Z" fill="#2D5E4E"/>
<path d="M214.444 99.4327C214.935 99.4327 215.598 99.7643 215.93 100.025C216.593 100.931 232.578 121.57 229.842 145.471C229.582 148.415 229.262 150.695 228.528 153.141L227.693 155.462C226.859 158.245 225.461 161.562 223.141 165.038C222.566 165.773 221.412 166.122 220.66 165.411C219.914 164.949 219.665 163.913 220.157 163.161C222.56 159.821 223.715 156.718 224.621 154.005H224.55L224.881 153.064C225.876 150.41 226.207 148.178 226.367 145.465C229.108 122.642 213.266 102.453 213.106 102.121C212.614 101.369 212.774 100.291 213.437 99.7584C213.781 99.5867 214.118 99.4268 214.45 99.4268L214.444 99.4327Z" fill="#2D5E4E"/>
<path d="M171.344 108.517C172.268 108.517 173.02 109.009 173.02 110.045V110.75C172.676 111.875 166.448 134.699 176.163 154.005C176.507 154.337 176.507 154.55 176.507 154.81L176.968 155.373C178.064 158.026 179.562 160.437 181.722 162.598C182.036 162.93 182.445 163.303 182.445 163.706C184.464 165.766 186.944 167.975 189.075 169.456C189.999 170.048 190.23 170.972 189.738 171.908C189.247 172.571 188.27 172.991 187.436 172.328C184.612 170.599 181.728 168.218 179.567 165.612L179.135 164.748C176.744 162.515 175.015 159.726 173.831 156.788C173.6 156.634 173.6 156.415 173.517 156.214L173.174 155.711C163.056 135.824 169.047 111.875 169.598 110.045C169.799 109.169 170.433 108.517 171.356 108.517H171.344Z" fill="#2D5E4E"/>
<path d="M171.001 108.186H172.676L172.848 109.34C176.974 111.881 197.21 124.886 202.917 146.644C203.089 147.639 203.178 148.184 203.42 148.634C203.752 149.99 204.066 151.328 204.066 152.945C204.746 156.795 204.569 161.147 203.503 165.547C203.42 166.459 202.337 167.117 201.496 166.815C200.691 166.625 200.028 165.772 200.188 164.754C201.182 160.904 201.271 156.883 200.502 153.146C200.502 151.879 200.348 150.695 200.028 149.54C199.844 148.877 199.596 148.184 199.507 147.307C193.628 125.135 170.592 111.881 170.421 111.881L169.586 111.33V110.708C169.444 110.335 169.444 110.158 169.444 110.045C169.444 109.009 169.935 108.186 171.001 108.186Z" fill="#2D5E4E"/>
<path d="M134.644 132.887C135.396 132.887 136.142 133.378 136.29 134.302C136.29 134.533 139.517 159.957 157.366 174.419C159.012 175.787 161.315 177.403 163.796 178.73C166.791 180.59 170.196 181.425 173.742 182.42V184.279L172.848 185.766C169.219 184.771 165.294 183.728 162.15 181.537C159.586 180.584 157.017 178.464 155.205 176.983C136.148 161.858 133.093 135.877 132.744 134.705C132.744 133.882 133.407 132.887 134.39 132.887H134.65H134.644Z" fill="#2D5E4E"/>
<path d="M134.645 132.887H134.733C135.716 133.005 160.421 136.233 175.986 153.691C176.418 154.224 176.821 154.816 176.969 155.509C176.969 155.711 177.229 155.971 177.312 156.214C179.212 158.245 180.367 160.395 181.722 162.604V162.764C182.184 163.167 182.445 163.469 182.445 163.913C183.8 166.453 185.269 169.64 185.932 173.246C186.103 174.2 185.588 175.195 184.606 175.277C183.593 175.52 182.759 174.857 182.699 173.992C181.717 170.605 180.367 167.448 179.212 165.287L178.721 164.292C177.395 162.059 176.418 159.957 174.482 158.251L173.819 157.387L173.588 156.421C158.651 139.395 134.639 136.28 134.378 136.233C133.395 136.233 132.732 135.368 132.732 134.302C132.874 133.378 133.626 132.887 134.633 132.887H134.645Z" fill="#2D5E4E"/>
<path d="M110.028 169.64C110.52 169.64 111.183 169.8 111.526 170.463C111.585 170.676 124.444 193.056 145.917 199.286C148.972 200.393 151.393 201.057 154.016 201.057C157.734 201.258 161.309 201.145 164.968 200.642C165.862 200.441 166.786 201.057 166.786 201.969C166.957 202.964 166.442 203.876 165.46 203.876C161.57 204.58 157.734 204.58 153.785 204.42C150.961 204.42 148.137 203.757 144.851 202.46C121.957 196.011 109.045 173.122 108.524 172.18C108.063 171.387 108.382 170.173 109.187 169.805C109.448 169.646 109.708 169.646 110.022 169.646L110.028 169.64Z" fill="#2D5E4E"/>
<path d="M128.334 167.289C137.042 167.289 147.651 168.816 157.165 174.194C159.243 175.029 161.315 176.355 163.565 178.215C163.997 178.387 164.317 178.718 164.548 179.05C167.283 181.2 169.793 183.942 172.416 187.631C172.848 188.407 172.676 189.609 171.924 189.976C171.173 190.61 170.107 190.456 169.444 189.603C166.963 186.056 164.714 183.563 162.061 181.413L161.398 180.868C159.32 179.21 157.68 178.055 155.75 177.392C135.544 166.116 110.691 172.79 110.519 172.998C109.537 173.24 108.619 172.737 108.388 171.629C108.217 170.806 108.708 169.8 109.543 169.64C110.176 169.468 117.902 167.289 128.339 167.289H128.334Z" fill="#2D5E4E"/>
<path d="M214.444 159.821C244.684 159.821 269.188 184.433 269.188 214.524C269.188 244.614 244.684 269.114 214.444 269.114C184.203 269.114 159.9 244.744 159.9 214.524C159.9 184.303 184.464 159.821 214.444 159.821ZM214.444 262.28C240.765 262.28 262.327 240.824 262.327 214.524C262.327 188.223 240.759 166.625 214.444 166.625C188.128 166.625 166.786 188.081 166.786 214.524C166.786 240.966 188.176 262.28 214.444 262.28Z" fill="#2D5E4E"/>
<path d="M214.675 0C214.935 0 215.598 0.33164 215.841 0.66328C216.504 1.36801 216.504 2.5406 215.752 2.9966C215.421 3.3697 179.875 35.3078 182.847 67.5953C184.174 82.6909 193.8 95.5656 211.288 105.994C212.04 106.599 212.366 107.593 211.951 108.517C211.46 109.169 210.383 109.5 209.631 109.009C191.153 97.9522 180.977 84.0648 179.39 68.0158C176.157 33.8273 211.951 1.87732 213.437 0.503382C213.781 0.0592214 214.118 0 214.675 0Z" fill="#2D5E4E"/>
<path d="M214.846 0C215.261 0 215.752 0 215.924 0.33164C217.582 1.69965 253.216 34.1175 249.9 68.1875C248.314 84.3076 238.048 98.0648 219.488 109.009C218.653 109.5 217.582 109.341 217.167 108.517C216.747 107.593 217.007 106.516 217.659 105.994C235.313 95.6722 245.004 82.8212 246.413 67.7671C249.729 35.4085 213.935 3.3164 213.781 2.9966C213.029 2.37478 212.946 1.36801 213.609 0.66328C213.852 0 214.444 0 214.846 0Z" fill="#2D5E4E"/>
<path d="M214.846 36.3501L215.924 37.3154C224.875 45.0142 230.091 56.9532 230.091 70.0471C230.091 83.1409 224.869 94.9201 215.924 102.459L214.846 103.282L213.775 102.459C204.983 94.9201 199.679 82.8211 199.596 70.0471C199.596 56.7933 204.912 45.0142 213.775 37.3154L214.846 36.3501ZM214.846 98.8583C222.14 92.0656 226.539 81.1215 226.539 70.0471C226.539 58.9727 222.3 48.0463 214.846 40.9931C207.482 47.8864 203.172 58.6114 203.172 70.0471C203.172 81.4827 207.482 92.0656 214.846 98.8583Z" fill="#2D5E4E"/>
<path d="M64.2171 62.4195C65.1999 62.4195 65.8629 63.2427 65.8629 64.1665C65.8629 64.6581 63.2995 112.367 88.3185 133.006C100.023 142.753 115.907 144.986 135.539 140.183C136.545 140.011 137.557 140.414 137.699 141.421C137.93 142.244 137.208 143.28 136.373 143.351C115.587 148.634 98.6079 146.176 86.0984 135.824C59.6644 113.895 62.37 65.9905 62.37 64.0007C62.5417 63.0058 63.2343 62.4136 64.2171 62.4136V62.4195Z" fill="#2D5E4E"/>
<path d="M68.9178 61.9752C81.6286 61.9752 117.896 64.0065 136.059 85.9243C146.325 98.3963 148.806 115.553 143.495 136.405C143.235 137.4 142.483 137.773 141.417 137.69C140.435 137.4 139.86 136.405 140.032 135.54C145.224 115.802 142.915 99.9242 133.401 88.0444C112.674 63.0115 64.963 65.4929 64.5308 65.4929C63.6073 65.4929 62.7133 64.8296 62.6304 63.8347C62.5476 62.8398 63.2935 62.1884 64.2171 62.1884C64.5368 62.1884 66.2951 61.9692 68.9178 61.9692V61.9752Z" fill="#2D5E4E"/>
<path d="M93.0429 88.0444C103.972 88.0444 115.013 92.8888 123.284 101.18C132.567 110.335 137.208 122.648 136.284 134.213L136.142 135.741L134.727 135.872H131.815C121.206 135.872 110.164 131.187 101.805 122.896C92.6403 113.699 87.91 101.18 88.804 89.6908V88.3761L90.3906 88.157C91.3733 88.0444 92.2081 88.0444 93.0429 88.0444ZM133.088 132.514C133.407 122.393 128.849 111.709 120.951 103.75C113.284 96.1222 103.161 91.5207 93.0429 91.5207H92.0601C91.7167 101.642 96.2694 112.373 104.137 120.444C112.005 128.161 121.951 132.514 131.815 132.514H133.082H133.088Z" fill="#2D5E4E"/>
<path d="M63.6961 178.967C65.1111 178.967 66.6089 179.05 68.1659 179.21C84.3401 180.708 98.0928 190.977 109.045 209.561C109.537 210.455 109.276 211.367 108.524 211.794C107.719 212.327 106.565 212.167 106.133 211.29C95.784 193.761 82.8363 184.096 67.8462 182.568C66.5201 182.408 65.0223 182.408 63.6961 182.408C32.8752 182.408 3.2976 214.968 3.06671 215.341C2.40364 216.004 1.3676 216.004 0.55652 215.471C-0.195354 214.968 -0.195354 213.813 0.55652 212.99C1.71097 211.622 31.2886 178.961 63.6902 178.961L63.6961 178.967Z" fill="#2D5E4E"/>
<path d="M159.581 51.8067C166.294 51.8067 173.819 53.7669 181.865 57.6578C182.759 58.019 183.043 58.9429 182.759 59.8075C182.439 60.8024 181.373 61.2229 180.367 60.8024C167.449 54.5901 156.354 53.6663 147.474 58.019C134.212 64.6518 130.406 81.4766 130.406 81.4766C130.175 82.4834 129.34 83.1052 128.505 82.815C127.522 82.6847 127.007 81.8201 127.179 80.7837C127.268 80.1086 131.069 62.4133 145.917 54.9573C149.984 53.0089 154.679 51.8008 159.581 51.8008V51.8067Z" fill="#2D5E4E"/>
<path d="M152.287 27.6978C162.636 27.6978 174.488 31.0852 187.66 37.3153C188.584 37.647 188.809 38.6419 188.412 39.6664C187.921 40.46 186.944 40.8804 186.103 40.3297C164.885 30.0488 147.332 28.4084 134.212 35.5979C115.416 45.7188 111.78 70.5326 111.698 70.8406C111.585 71.5453 110.833 72.256 110.028 72.256H109.856C108.874 72.0368 108.211 71.2196 108.388 70.2661C108.53 69.2297 112.195 43.3618 132.578 32.5006C138.457 29.427 145.088 27.6978 152.299 27.6978H152.287Z" fill="#2D5E4E"/>
<path d="M159.095 38.4702C166.792 38.4702 175.411 40.3298 184.866 43.8179C185.76 44.191 186.251 45.1741 185.938 46.0506C185.594 47.0455 184.523 47.3357 183.605 47.0455C166.306 40.3238 152.038 40.1699 140.707 46.3407C124.704 55.0759 120.643 74.7315 120.643 74.7315C120.383 75.8152 119.406 76.52 118.482 76.2298C117.588 76.0166 117.097 75.0631 117.245 74.2281C117.417 73.322 121.567 53.015 139.126 43.356C144.922 40.1699 151.494 38.4702 159.107 38.4702H159.095Z" fill="#2D5E4E"/>
<path d="M81.0247 126.295C81.8595 126.295 82.5226 126.87 82.5226 127.563C83.0139 128.487 82.5226 129.523 81.6286 129.855C68.1067 134.699 59.5756 141.995 56.4024 151.328C51.7609 165.417 60.9551 179.701 61.2155 180.033C61.476 180.714 61.3043 181.75 60.5525 182.236C59.6585 182.947 58.7054 182.568 58.1607 181.744C57.7285 181.069 47.895 165.915 53.1758 150.239C56.6629 139.757 65.8629 131.868 80.5334 126.621C80.6222 126.491 80.8767 126.29 81.0247 126.29V126.295Z" fill="#2D5E4E"/>
<path d="M70.759 108.186C71.5109 108.186 72.0852 108.677 72.4048 109.34C72.7482 110.164 72.2628 111.2 71.2208 111.549C48.8777 119.248 35.4446 130.352 31.2945 144.773C25.096 165.293 40.0032 185.262 40.2578 185.594C40.8321 186.275 40.6604 187.471 39.9381 187.975C39.1863 188.549 38.091 188.419 37.6055 187.643C36.8004 186.802 21.1709 165.784 27.92 143.618C32.6503 128.38 46.7168 116.423 70.1847 108.191H70.759V108.186Z" fill="#2D5E4E"/>
<path d="M73.583 114.676C74.246 114.676 74.9979 115.049 75.14 115.801C75.6314 116.595 75.14 117.43 74.246 117.922C57.4088 125.431 46.9477 135.54 43.4251 147.811C38.3515 165.417 49.304 181.999 49.3632 182.242C49.7657 182.953 49.5348 183.989 48.8718 184.522C48.037 185.096 46.9418 184.937 46.3912 184.102C46.0478 183.438 34.5447 166.122 40.1631 146.816C44.0527 133.509 54.9815 122.647 72.9732 114.895C73.062 114.676 73.3757 114.676 73.577 114.676H73.583Z" fill="#2D5E4E"/>
<path d="M173.333 84.3076C189.247 84.509 202.337 97.5732 202.337 113.693C202.337 121.031 199.685 127.563 195.132 132.626L192.568 130.192C196.636 125.84 198.767 120.071 198.767 113.699C198.767 99.5986 187.441 87.8727 173.339 87.8727C159.237 87.8727 147.912 99.4387 147.912 113.699C147.829 126.302 157.367 137.406 170.196 138.993L169.592 142.422C155.206 140.42 144.336 128.161 144.514 113.699C144.514 97.5377 157.372 84.3135 173.339 84.3135L173.333 84.3076Z" fill="#2D5E4E"/>
<path d="M113.829 143.28C121.294 143.28 128.849 146.176 134.645 151.986C139.777 157.12 142.489 163.463 142.773 170.344L139.428 170.457C139.286 164.345 136.604 158.909 132.223 154.337C121.957 144.435 105.789 144.098 95.926 154.005C91.1424 158.909 88.4901 165.281 88.4901 172.086C88.4901 178.89 91.2312 185.464 96.1865 190.456C105.037 199.44 119.625 200.216 129.831 192.476L131.821 195.158C120.229 204.083 103.972 203.088 93.7059 192.807C88.1408 187.217 84.9972 179.873 84.9972 172.091C84.9972 164.31 88.1409 157.126 93.3862 151.66C98.9216 146.182 106.357 143.28 113.823 143.28H113.829Z" fill="#2D5E4E"/>
</g>
</g>
<defs>
<clipPath id="clip0_67_1486">
<rect width="429" height="429" fill="white"/>
</clipPath>
</defs>
</svg>
