<svg width="36" height="36" viewBox="0 0 36 36" fill="none" xmlns="http://www.w3.org/2000/svg">
<path d="M18.2353 3.18575C22.9784 3.18575 23.5402 3.20343 25.4139 3.28846C26.5405 3.30218 27.6564 3.50806 28.7131 3.89715C29.4794 4.19127 30.1753 4.64181 30.756 5.21978C31.3368 5.79775 31.7895 6.49034 32.085 7.25297C32.476 8.3046 32.6828 9.41516 32.6966 10.5364C32.7812 12.4012 32.7998 12.9602 32.7998 17.6807C32.7998 22.4013 32.7821 22.9603 32.6966 24.8251C32.6828 25.9463 32.476 27.0569 32.085 28.1085C31.7895 28.8711 31.3368 29.5637 30.756 30.1417C30.1753 30.7197 29.4794 31.1702 28.7131 31.4643C27.6564 31.8534 26.5405 32.0593 25.4139 32.073C23.541 32.1572 22.9793 32.1757 18.2353 32.1757C13.4912 32.1757 12.9295 32.1581 11.0566 32.073C9.93002 32.0593 8.81413 31.8534 7.75745 31.4643C6.99116 31.1702 6.29525 30.7197 5.7145 30.1417C5.13376 29.5637 4.68105 28.8711 4.38553 28.1085C3.99457 27.0569 3.7877 25.9463 3.77392 24.8251C3.68932 22.9603 3.67071 22.4013 3.67071 17.6807C3.67071 12.9602 3.68848 12.4012 3.77392 10.5364C3.7877 9.41516 3.99457 8.3046 4.38553 7.25297C4.68105 6.49034 5.13376 5.79775 5.7145 5.21978C6.29525 4.64181 6.99116 4.19127 7.75745 3.89715C8.81413 3.50806 9.93002 3.30218 11.0566 3.28846C12.9304 3.20427 13.4921 3.18575 18.2353 3.18575ZM18.2353 0C13.4134 0 12.806 0.0202055 10.9111 0.106079C9.43668 0.135266 7.9779 0.413104 6.59682 0.927774C5.41208 1.37202 4.339 2.06818 3.45246 2.9677C2.54781 3.85032 1.84771 4.91888 1.40105 6.09872C0.883914 7.47321 0.604744 8.92502 0.575417 10.3924C0.490823 12.2766 0.47052 12.8811 0.47052 17.6799C0.47052 22.4787 0.490823 23.0832 0.577108 24.9691C0.606435 26.4365 0.885606 27.8883 1.40275 29.2628C1.8489 30.4424 2.54842 31.511 3.45246 32.3938C4.33949 33.2935 5.41316 33.9897 6.59851 34.4337C7.97959 34.9484 9.43837 35.2262 10.9128 35.2554C12.8077 35.3396 13.4126 35.3615 18.237 35.3615C23.0614 35.3615 23.6662 35.3413 25.5611 35.2554C27.0355 35.2262 28.4943 34.9484 29.8754 34.4337C31.0551 33.9786 32.1264 33.2835 33.0208 32.3928C33.9152 31.5021 34.6129 30.4355 35.0695 29.2611C35.5866 27.8866 35.8658 26.4348 35.8951 24.9674C35.9797 23.0832 36 22.4787 36 17.6799C36 12.8811 35.9797 12.2766 35.8934 10.3907C35.8641 8.92334 35.5849 7.47152 35.0678 6.09704C34.6216 4.91735 33.9221 3.84881 33.0181 2.96601C32.131 2.06629 31.0574 1.37011 29.872 0.92609C28.4909 0.41142 27.0322 0.133583 25.5577 0.104396C23.6645 0.0202057 23.0571 0 18.2353 0Z" fill="#27272A"/>
<path d="M18.232 8.60156C16.4277 8.60156 14.664 9.13404 13.1638 10.1317C11.6636 11.1293 10.4943 12.5472 9.80383 14.2062C9.11336 15.8652 8.9327 17.6907 9.2847 19.4518C9.6367 21.213 10.5055 22.8307 11.7814 24.1005C13.0572 25.3702 14.6827 26.2349 16.4523 26.5852C18.2219 26.9355 20.0562 26.7557 21.7231 26.0686C23.39 25.3814 24.8148 24.2177 25.8172 22.7247C26.8196 21.2316 27.3546 19.4763 27.3546 17.6806C27.3546 15.2727 26.3935 12.9634 24.6827 11.2608C22.9719 9.5581 20.6515 8.60156 18.232 8.60156ZM18.232 23.5739C17.0608 23.5739 15.916 23.2283 14.9422 22.5807C13.9684 21.9331 13.2094 21.0127 12.7612 19.9359C12.313 18.859 12.1957 17.6741 12.4242 16.5309C12.6527 15.3877 13.2167 14.3376 14.0448 13.5134C14.873 12.6892 15.9281 12.1279 17.0768 11.9005C18.2255 11.6732 19.4161 11.7899 20.4981 12.2359C21.5801 12.682 22.505 13.4373 23.1556 14.4065C23.8063 15.3756 24.1536 16.515 24.1536 17.6806C24.1536 19.2436 23.5297 20.7426 22.4192 21.8478C21.3087 22.953 19.8025 23.5739 18.232 23.5739Z" fill="#27272A"/>
<path d="M27.7164 10.3638C28.8937 10.3638 29.8481 9.41391 29.8481 8.24219C29.8481 7.07047 28.8937 6.12061 27.7164 6.12061C26.539 6.12061 25.5846 7.07047 25.5846 8.24219C25.5846 9.41391 26.539 10.3638 27.7164 10.3638Z" fill="#27272A"/>
</svg>
