<svg width="122" height="429" viewBox="0 0 122 429" fill="none" xmlns="http://www.w3.org/2000/svg">
<g opacity="0.3">
<path d="M-36.3078 224.39C-34.7212 224.39 -33.2529 224.55 -31.7551 224.805H-31.5834C-28.8424 224.805 -25.8763 225.338 -22.703 226.51C-0.0106773 233.066 12.9902 255.967 13.4165 256.974C13.9966 257.809 13.5882 258.673 12.9251 259.307C12.0607 259.68 10.9063 259.508 10.5037 258.555C10.332 258.324 -2.49719 235.974 -23.8871 229.773C-26.6874 228.678 -29.3337 228.287 -31.8439 228.287C-35.8223 227.742 -39.1969 227.896 -42.8556 228.5C-43.6075 228.672 -44.531 228.068 -44.8448 227.073C-44.9277 226.161 -44.4126 225.326 -43.347 225.083C-41.044 224.639 -38.7055 224.378 -36.3137 224.378L-36.3078 224.39Z" fill="#2D5E4E"/>
<path d="M-48.912 238.781C-48.391 238.781 -47.8464 239.041 -47.4971 239.414C-45.0224 243.074 -42.6839 245.414 -40.375 247.054L-39.9428 246.941L-38.7884 248.09C-37.0597 249.766 -35.6447 250.915 -34.064 251.294L-32.9096 251.786V252.076C-13.1063 262.777 11.3444 256.316 11.5753 256.144C12.416 255.973 13.4224 256.518 13.5941 257.353C13.825 258.336 13.4224 259.283 12.416 259.514C11.4332 259.686 -13.7634 266.579 -34.8928 254.99C-35.2066 254.99 -35.6447 254.557 -35.8164 254.326C-37.8056 253.545 -39.5343 252.277 -40.6888 250.921C-41.2631 250.921 -41.6123 250.578 -42.0149 250.086C-44.8389 248.126 -47.4912 245.414 -50.4039 241.463C-50.8065 240.658 -50.546 239.533 -49.883 239.041C-49.5692 238.781 -49.2199 238.781 -48.9002 238.781H-48.912Z" fill="#2D5E4E"/>
<path d="M-18.0024 198.854C3.47628 198.854 21.1187 212.451 21.9534 213.203C22.6165 213.825 22.8474 214.974 22.356 215.684C21.6041 216.36 20.5385 216.437 19.7925 216.016C19.6208 215.773 -1.60331 199.452 -24.7752 202.97H-25.3495C-26.5335 202.97 -27.5163 203.171 -28.7536 203.432C-29.4463 203.882 -30.0798 204.095 -30.6836 204.095C-33.7385 204.918 -37.4564 206.114 -41.0915 208.69C-41.8433 209.271 -43.0274 209.271 -43.5128 208.436C-44.0042 207.654 -43.9154 206.446 -43.1103 206.114C-38.7826 202.97 -34.7213 201.572 -31.2342 200.654H-30.4231L-30.0798 200.234H-29.9377C-28.3511 199.86 -27.0249 199.701 -25.3554 199.701C-22.7919 199.037 -20.483 198.86 -18.0024 198.86V198.854Z" fill="#2D5E4E"/>
<path d="M20.7695 212.783C21.2608 212.783 21.9476 212.996 22.3561 213.618C22.8475 214.151 22.6166 215.234 21.9535 215.85C21.1188 216.602 0.4156 232.551 -23.7095 229.868C-26.1013 229.696 -28.5226 229.276 -31.092 228.399V228.512L-33.5726 227.748C-36.3078 226.925 -39.7119 225.468 -43.1161 223.016C-43.9212 222.572 -44.0101 221.399 -43.5187 220.493C-43.0273 219.877 -41.8432 219.789 -41.0973 220.292C-37.8115 222.572 -34.6679 223.721 -32.0748 224.651L-31.9031 224.39L-31.098 224.923C-28.274 225.918 -26.0243 226.173 -23.5733 226.421C-0.685581 229.116 19.615 213.399 19.7867 213.203C20.1005 213.002 20.4498 212.783 20.7695 212.783Z" fill="#2D5E4E"/>
<path d="M-6.87818 167.289C3.20995 167.289 11.0839 169.267 12.0607 169.64C12.9251 169.8 13.5882 170.463 13.5882 171.387C13.5882 172.18 12.9843 173.116 12.0607 173.116L11.2556 173.004C10.2728 172.743 -12.8458 166.46 -31.9031 176.202C-32.2465 176.361 -32.507 176.361 -32.5958 176.533L-33.3181 176.865C-35.8815 177.889 -38.4805 179.589 -40.6118 181.62C-41.044 182.082 -41.2749 182.242 -41.6242 182.414C-43.8739 184.433 -46.0052 186.796 -47.3313 189.207C-47.9056 189.982 -49.0896 190.314 -49.8119 189.71C-50.5638 189.207 -50.9072 188.081 -50.4158 187.46C-48.4799 184.516 -46.0052 181.62 -43.5246 179.471L-42.8615 179.05C-40.3809 176.687 -37.6458 175.029 -34.9047 173.815C-34.5021 173.542 -34.2416 173.542 -34.0699 173.323L-33.7503 173.163C-24.787 168.639 -15.1014 167.283 -6.88411 167.283L-6.87818 167.289Z" fill="#2D5E4E"/>
<path d="M12.0608 169.148C12.41 169.148 12.8127 169.261 13.156 169.64C13.8191 170.173 13.8191 171.387 13.3277 172.092L12.9843 172.405C12.5817 173.169 -0.940147 196.704 -24.6094 202.958C-25.5329 203.088 -26.1072 203.159 -26.6874 203.42C-28.0964 203.751 -29.4521 204.083 -30.9263 204.083C-34.733 204.734 -39.2028 204.575 -43.5246 203.58C-44.537 203.42 -45.0224 202.454 -44.8507 201.56C-44.537 200.636 -43.7851 200.062 -42.6898 200.222C-38.7943 201.146 -34.9935 201.264 -31.098 200.642C-29.8606 200.642 -28.7654 200.222 -27.5221 200.068C-26.9419 199.849 -26.1072 199.695 -25.3553 199.695C-3.07143 193.767 10.1011 170.682 10.2788 170.463L10.6813 169.8C11.0839 169.267 11.5161 169.148 12.0608 169.148Z" fill="#2D5E4E"/>
<path d="M5.1992 283.043C17.4541 283.043 27.6607 286.472 35.9313 293.336C62.2824 315.135 59.8018 363.122 59.5709 365.171C59.5709 366.095 58.819 366.699 57.9014 366.699C56.889 366.616 56.0839 365.894 56.2555 364.798C56.2555 364.478 58.7361 316.58 33.8 295.847C22.1252 286.27 6.18195 283.878 -13.5976 288.841C-14.5212 289.155 -15.4152 288.468 -15.5868 287.544C-15.9302 286.703 -15.4152 285.814 -14.5212 285.524C-7.39913 283.878 -0.940108 283.043 5.1992 283.043Z" fill="#2D5E4E"/>
<path d="M-19.737 291.47H-19.3344C-18.4108 291.494 -17.8366 292.595 -18.1859 293.341C-23.2299 313.24 -20.9802 329.218 -11.3835 340.985C9.17165 365.905 57.0547 363.596 57.6349 363.596H57.7474C58.6414 363.596 59.3044 364.17 59.3932 365.183C59.4761 366.107 58.8131 366.853 57.8066 367.001C55.7286 367.001 7.70343 369.394 -13.947 343.093C-24.3844 330.58 -26.865 313.536 -21.4716 292.601C-21.2407 291.76 -20.6665 291.476 -19.7429 291.476L-19.737 291.47Z" fill="#2D5E4E"/>
<path d="M-9.79095 293.11C0.966166 293.11 11.9187 297.955 20.2781 306.234C29.3005 315.289 34.0308 327.542 33.2198 339.197L33.1369 340.606H31.7279C20.1064 341.814 7.76857 336.828 -1.1651 327.684C-10.2764 318.718 -15.0896 306.376 -14.2548 294.84L-14.0239 293.341L-12.6149 293.259C-11.7802 293.116 -10.7974 293.116 -9.79095 293.116V293.11ZM29.9695 337.432C30.23 327.311 25.7603 316.586 17.8922 308.739C9.6749 300.697 -0.584944 296.137 -10.9395 296.628C-11.2829 306.66 -6.81306 317.45 1.13785 325.38C9.18349 333.221 19.7038 337.87 29.9695 337.432Z" fill="#2D5E4E"/>
<path d="M58.4223 179.216C90.7114 179.216 120.23 212.007 121.526 213.487C122.136 214.151 122.047 215.146 121.384 215.85C120.721 216.431 119.567 216.431 118.904 215.767C118.732 215.347 89.2077 182.574 58.2447 182.574C57.0666 182.574 55.7345 182.745 54.3255 182.947C39.2466 184.273 26.3286 193.891 15.8083 211.29C15.3169 212.173 14.3104 212.445 13.4165 211.794C12.7534 211.361 12.4101 210.295 12.9251 209.561C23.9368 191.149 37.8672 180.868 54.0946 179.471C55.5924 179.21 56.889 179.21 58.4223 179.21V179.216Z" fill="#2D5E4E"/>
<path d="M120.23 213.203C120.721 213.203 121.035 213.333 121.384 213.618C122.136 214.151 122.219 215.347 121.526 216.01C120.23 217.508 90.7114 250.08 58.4223 250.08C56.8949 250.08 55.4208 249.997 53.9229 249.968C37.6896 248.351 23.9427 238.112 12.9251 219.327C12.4101 218.663 12.7534 217.68 13.5882 217.177C14.3105 216.644 15.3761 216.934 15.8083 217.757C26.3286 235.316 39.1045 244.981 54.1775 246.539C86.4074 249.772 118.726 214.151 119.07 213.618C119.3 213.404 119.881 213.203 120.224 213.203H120.23Z" fill="#2D5E4E"/>
<path d="M52.0225 199.689C65.1063 199.689 76.8758 204.734 84.5958 213.819L85.5786 214.968L84.5958 216.01C76.8699 224.923 65.1063 229.957 52.0225 229.957C38.9388 229.957 27.0805 224.805 19.615 216.01L18.6323 214.968L19.615 213.819C27.0805 204.734 39.0157 199.689 52.0225 199.689ZM81.1088 214.974C73.9867 207.447 63.2947 203.094 52.0225 203.094C40.6616 203.165 30.2301 207.447 23.108 214.974C30.2301 222.24 40.7504 226.599 52.0225 226.599C63.2947 226.599 73.9867 222.246 81.1088 214.974Z" fill="#2D5E4E"/>
<path d="M53.029 62.1884C55.9121 62.1884 57.6409 62.4194 57.9013 62.4194C58.967 62.4194 59.8018 63.2426 59.5709 64.1664C59.5709 65.0725 58.819 65.6647 57.9013 65.6647C57.2383 65.6647 9.60977 63.2426 -11.1171 88.157C-20.8026 99.9243 -23.1352 115.796 -18.1799 135.54C-18.0083 136.405 -18.4108 137.4 -19.3285 137.69C-20.3112 137.909 -21.2348 137.4 -21.4657 136.405C-26.6874 115.553 -24.0588 98.3964 -13.7694 86.1376C4.22232 64.3204 39.9097 62.1884 53.029 62.1884Z" fill="#2D5E4E"/>
<path d="M58.2506 62.5911C59.0558 62.5911 59.8965 63.2426 59.8965 64.1605C60.0681 66.2392 62.46 114.226 35.9372 136.067C23.5401 146.265 6.44834 148.782 -14.5153 143.345C-15.4093 143.274 -16.0131 142.238 -15.581 141.415C-15.4093 140.408 -14.5982 139.757 -13.5917 140.177C6.35954 145.27 22.1311 143.12 33.8887 133.373C58.9137 112.698 56.4923 64.8238 56.4035 64.3204C56.4035 63.4972 57.0666 62.5911 58.073 62.5911H58.2447H58.2506Z" fill="#2D5E4E"/>
<path d="M29.3006 88.5775C30.2241 88.5775 31.2365 88.5775 32.2133 88.7078L33.5395 88.8677L33.7112 90.3541C34.6939 101.802 29.7327 114.232 20.7102 123.317C11.5694 132.431 -0.448766 137.477 -12.2715 136.28L-13.5977 136.239L-13.7694 134.711C-14.6929 123.062 -10.1343 111.052 -0.851338 101.808C7.53767 93.4455 18.4665 88.5834 29.3065 88.5834L29.3006 88.5775ZM30.3129 92.0656C20.1064 91.6037 9.67489 96.2467 1.62925 104.277C-6.55847 112.367 -10.8803 122.648 -10.4481 132.999C-0.182343 132.999 10.2788 128.818 18.2948 120.77C26.3345 112.983 30.7214 102.127 30.3129 92.0597V92.0656Z" fill="#2D5E4E"/>
<path d="M12.0608 356.726H12.2324C13.156 356.726 13.8191 357.768 13.7303 358.805C13.5882 359.96 9.83473 385.567 -10.5428 396.381C-24.781 404.139 -43.2049 402.439 -65.5776 391.708C-66.2998 391.418 -66.732 390.24 -66.2998 389.434C-65.9801 388.682 -64.8316 388.309 -64.0797 388.682C-42.8615 398.915 -25.3612 400.449 -12.2715 393.467C6.5253 383.488 10.2728 358.426 10.2728 358.254C10.3261 357.419 11.2556 356.726 12.0608 356.726Z" fill="#2D5E4E"/>
<path d="M3.20995 352.746C3.26916 352.746 3.35599 352.804 3.47044 352.918C4.3644 353.06 5.02747 353.96 4.79658 354.878C4.71369 355.69 0.474808 376.074 -16.9959 385.65C-29.1916 392.342 -44.531 392.194 -62.8365 385.158C-63.6712 384.815 -64.1626 383.98 -63.8192 383.026C-63.4167 382.073 -62.4931 381.581 -61.6524 381.954C-44.3534 388.676 -29.9435 388.848 -18.6713 382.618C-2.49718 373.705 1.48125 354.357 1.48125 354.067C1.62333 353.374 2.32191 352.741 3.20995 352.741V352.746Z" fill="#2D5E4E"/>
<path d="M62.3711 246.539C62.975 246.539 63.4664 246.711 63.7861 247.291C64.3071 247.925 74.1347 263.008 68.8597 278.868C65.3727 289.249 56.2614 297.126 41.4134 302.402C40.6615 302.805 39.5959 302.343 39.2466 301.538C39.0157 300.495 39.4183 299.66 40.4306 299.287C54.0946 294.301 62.454 287.005 65.5385 277.831C70.3221 263.642 61.0687 249.251 60.8674 249.109C60.376 248.357 60.5477 247.291 61.3825 246.716C61.785 246.545 61.9627 246.545 62.3652 246.545L62.3711 246.539Z" fill="#2D5E4E"/>
<path d="M83.1868 240.771C83.767 240.771 84.2584 240.824 84.6018 241.464C85.2648 242.216 100.835 263.008 94.2044 285.299C89.4741 300.697 75.1471 312.577 51.8568 320.797C51.022 321.17 49.8675 320.512 49.7195 319.79C49.3762 318.807 49.7196 317.824 50.7023 317.539C72.9033 309.722 86.4252 298.624 90.8062 284.204C97.0343 263.843 81.9554 243.572 81.7837 243.572C81.2923 242.618 81.4344 241.552 82.0975 241.061C82.4408 240.777 82.7901 240.777 83.1927 240.777L83.1868 240.771Z" fill="#2D5E4E"/>
<path d="M74.1347 244.028C74.7386 244.028 75.3128 244.401 75.5437 244.981C76.0647 245.645 87.3961 263.002 81.7718 282.149C78.0539 295.645 67.0955 306.228 49.1985 314.247C48.3875 314.738 47.2922 314.247 46.8068 313.435C46.5463 312.399 46.8897 311.416 47.7007 311.072C64.6208 303.605 75.0582 293.596 78.5453 281.166C83.767 263.636 72.8382 246.936 72.7494 246.705C72.1751 246.101 72.3172 244.975 73.1519 244.484C73.5545 244.253 73.9038 244.022 74.1347 244.022V244.028Z" fill="#2D5E4E"/>
<path d="M40.7504 126.959C40.7504 126.959 40.922 126.959 41.07 127.16C41.8219 127.249 59.5768 131.181 67.1015 145.774C71.8317 155.705 70.991 167.662 64.4492 181.993C63.9578 182.745 62.975 183.065 62.1403 182.745C61.3884 182.242 60.8733 181.206 61.3884 180.412C67.4448 167.295 68.25 156.22 63.9578 147.307C57.2383 134.213 40.6615 130.352 40.4306 130.352C39.4183 130.192 38.9328 129.286 39.1045 128.374C39.2466 127.569 39.9097 126.959 40.7444 126.959H40.7504Z" fill="#2D5E4E"/>
<path d="M51.3595 108.186H51.6732C52.9402 108.517 78.5453 112.106 89.4682 132.508C97.0224 146.81 95.4358 165.281 84.5958 187.631C84.2524 188.407 83.2697 188.78 82.4349 188.407C81.6001 187.963 81.1976 186.921 81.6002 186.103C91.8067 164.748 93.4525 147.301 86.4133 134.208C76.3844 115.375 51.3595 111.698 51.1819 111.567C50.2879 111.567 49.7136 110.703 49.7136 109.749C49.8557 108.843 50.5247 108.18 51.3595 108.18V108.186Z" fill="#2D5E4E"/>
<path d="M47.4698 117.17H47.8132C48.6184 117.341 69.0019 121.481 78.717 138.987C85.401 151.169 85.2589 166.625 78.1072 184.765C77.7934 185.76 76.8107 186.062 75.8871 185.76C75.0523 185.47 74.561 184.433 74.8807 183.569C81.5942 166.294 81.7719 151.992 75.7154 140.716C66.7818 124.466 47.2922 120.575 47.1442 120.527C46.3095 120.285 45.6464 119.402 45.7885 118.538C45.9602 117.714 46.712 117.17 47.4639 117.17H47.4698Z" fill="#2D5E4E"/>
<path d="M-33.2529 26.2884C-29.5942 26.2884 -25.6987 26.7089 -21.7203 27.9051C-6.38679 32.5066 5.54848 46.8086 13.7421 70.2662C14.0026 71.0598 13.6 72.0369 12.7593 72.3686C11.8358 72.6588 10.6813 72.2501 10.5097 71.2848C2.7245 49.0768 -8.45888 35.4085 -22.703 31.2571C-43.199 25.1277 -63.322 40.1699 -63.4936 40.1699C-64.3047 40.7443 -65.3112 40.6614 -65.9742 39.8383C-66.5485 39.1335 -66.2939 37.9787 -65.5717 37.4753C-64.8257 36.9423 -50.5519 26.2884 -33.2529 26.2884Z" fill="#2D5E4E"/>
<path d="M-35.8223 38.642C-32.2465 38.642 -28.5878 39.1335 -24.781 40.1699C-11.6085 43.8179 -0.679657 54.9634 7.18837 72.8305C7.53175 73.784 7.18835 74.7315 6.3536 75.0631C5.54252 75.3948 4.36442 75.1934 4.05064 74.2281C-3.50361 57.3559 -13.4497 47.0455 -25.7875 43.356C-43.5187 38.3103 -60.0954 49.2367 -60.1783 49.2367C-60.9894 49.8289 -61.9958 49.5683 -62.4872 48.8636C-63.1503 48.0404 -62.9194 47.0455 -62.1675 46.471C-61.5044 46.0506 -50.2323 38.642 -35.8164 38.642H-35.8223Z" fill="#2D5E4E"/>
<path d="M8.02905 227.748C15.382 227.748 22.8475 230.614 28.3237 236.211C33.8888 241.86 36.9436 249.245 36.9436 256.974C36.9436 264.702 33.948 271.939 28.4954 277.393C23.102 282.841 15.9859 285.814 8.25403 285.814C0.522165 285.814 -6.88408 282.67 -12.6149 277.162C-17.659 271.939 -20.6605 265.774 -20.8026 258.679L-17.434 258.507C-17.1735 264.56 -14.61 270.275 -10.1402 274.799C-5.23826 279.703 1.30364 282.468 8.25403 282.468C15.2044 282.468 21.2608 279.697 26.1569 275.001C30.8813 270.067 33.5395 263.837 33.5395 256.974C33.5395 250.11 30.8872 243.566 25.8431 238.692C16.9687 229.696 2.46401 228.772 -7.71292 236.643L-9.79094 233.96C-4.48638 229.779 1.80093 227.748 8.02313 227.748H8.02905Z" fill="#2D5E4E"/>
<path d="M8.25995 144.435C24.4341 144.435 37.6067 157.381 37.6067 173.246C37.6067 189.112 24.4341 202.271 8.25995 202.271C0.966183 202.271 -5.57571 199.819 -10.5369 194.975L-8.23392 192.695C-3.82332 196.704 1.80093 198.812 8.25402 198.812C22.5219 198.812 34.0308 187.335 34.0308 173.246C34.0308 159.158 22.5278 147.811 8.25402 147.811C-4.4035 147.811 -15.356 157.387 -16.9959 170.173L-20.3112 169.64C-18.4108 155.308 -6.1559 144.435 8.25402 144.435H8.25995Z" fill="#2D5E4E"/>
</g>
</svg>
