<svg width="90" height="81" viewBox="0 0 90 81" fill="none" xmlns="http://www.w3.org/2000/svg">
<path d="M30.7295 32.5426C29.3871 32.2692 27.9982 32.3301 26.6849 32.7199C25.2939 33.1908 24.0274 33.9705 22.9804 35.0004C22.1708 35.8516 21.4529 36.7855 20.8385 37.7866C18.337 41.503 16.5901 45.6747 15.6969 50.0646C15.271 52.0506 15.0027 54.0672 14.8945 56.0956C14.8128 57.3876 14.886 58.6887 14.8533 59.9707C14.8206 61.2527 14.694 62.5743 14.638 63.8917C14.6225 64.7111 14.2932 64.6971 13.659 64.0927C13.2633 63.6816 12.911 63.2308 12.6075 62.7476C12.1728 62.1091 11.8424 61.4055 11.6287 60.6632C11.5564 60.3108 11.482 59.9486 11.4097 59.5961L11.3121 58.5245C11.238 57.8154 11.2344 57.1019 11.1994 56.3848C11.1695 54.9587 11.2172 53.5321 11.3424 52.1113C11.6933 49.2661 12.3839 46.4733 13.3994 43.7925C14.6631 40.605 15.7667 37.1342 17.9898 34.1476C19.2146 32.4677 20.7268 31.0175 22.4565 29.864C24.2745 28.6802 26.3751 28.0025 28.5421 27.9006L29.5553 27.8661L30.524 27.9631C31.1769 28.0093 31.825 28.1083 32.462 28.2591C33.7707 28.5886 34.9992 29.1798 36.0732 29.9969C37.6236 31.1965 38.8629 32.7511 39.6869 34.5297C40.5039 36.2284 41.0015 38.0629 41.1549 39.9417C41.4793 42.7807 41.23 45.656 40.4215 48.3968C40.2748 49.0045 40.0759 49.5983 39.8268 50.1717C38.8557 52.2993 37.9184 52.6039 36.8909 52.5189C36.6569 52.5108 36.4237 52.4871 36.1928 52.448C35.8552 52.3439 35.6693 52.0351 35.5807 51.5534C35.4567 50.9254 35.4919 50.2764 35.6828 49.6654C35.8291 49.1355 35.8634 48.5571 36.0353 48.0525C36.1925 47.5422 36.3175 47.0224 36.4096 46.4964C36.5353 45.9866 36.6302 45.4697 36.6938 44.9485C36.7402 44.4289 36.8649 43.8932 36.8683 43.4129C37.0366 41.4366 36.7745 39.4472 36.0999 37.5819C35.6437 36.3174 34.9099 35.1711 33.9524 34.2275C33.8284 34.1204 33.7199 33.9896 33.5999 33.902L33.2281 33.6314C32.9936 33.4552 32.7405 33.3053 32.4732 33.1845C32.2226 33.0608 31.9625 32.9572 31.6955 32.8748C31.403 32.792 31.0167 32.7489 30.685 32.6741L30.7295 32.5426Z" fill="#FCF5E6"/>
<path d="M39.219 29.2184C40.1961 30.1665 40.998 31.2798 41.5876 32.507C42.1432 33.6841 42.5176 34.9384 42.6982 36.2274C42.9947 38.5221 42.8964 40.8507 42.4077 43.1123C41.9697 45.1864 41.3639 47.2215 40.5961 49.1974L40.0601 50.5623L39.9108 50.8786L39.575 51.5291C39.4886 51.6856 39.4128 51.8477 39.3482 52.0144C39.298 52.1675 39.1617 52.3485 39.2466 52.4637C39.6088 52.3894 39.9019 52.2272 40.1994 52.1355C40.4969 52.0438 40.7393 51.9328 41.0621 51.8156C41.0621 51.8156 41.8541 51.449 42.4291 51.2187C43.0042 50.9884 43.6671 50.6891 44.3148 50.4643C44.9624 50.2396 45.7139 50.0241 46.409 49.8814C46.781 49.8051 47.153 49.7287 47.525 49.6523C47.9047 49.5706 48.2907 49.5221 48.6787 49.5073C50.3427 49.3447 52.0202 49.6193 53.5455 50.3039C53.9208 50.4921 54.3157 50.6763 54.6852 50.8861L55.6729 51.622C55.9988 51.87 56.299 52.1502 56.5689 52.4583C56.835 52.7608 57.1167 53.0396 57.367 53.3147C58.4071 54.6874 59.0342 56.3283 59.1746 58.0448C59.2613 59.6442 58.9706 61.2416 58.326 62.708C57.7548 64.0494 56.9774 65.2933 56.0221 66.3946C54.4398 68.3173 52.528 69.943 50.3761 71.1958C48.268 72.3563 46.016 73.2337 43.6784 73.8051C37.8688 74.8868 31.9009 74.7863 26.1311 73.5098C24.3771 73.1659 24.6873 72.4901 26.244 71.8237C28.6519 70.9135 31.1712 70.3312 33.7342 70.0923C36.4 69.895 39.0378 69.4185 41.6042 68.6707C42.2166 68.4735 42.8213 68.2882 43.4301 68.1224C44.0388 67.9567 44.6277 67.744 45.2027 67.5137L46.0594 67.1644L46.8845 66.7604C47.1448 66.6445 47.3969 66.5109 47.639 66.3606C47.8861 66.2339 48.1221 66.0865 48.3444 65.92C50.2366 64.6481 51.8096 62.9566 52.941 60.9772C53.4113 60.2158 53.6857 59.3498 53.7396 58.4565C53.741 57.6521 53.4619 56.8724 52.9504 56.2516C52.3014 55.3317 51.3009 54.721 50.1861 54.5643C48.7863 54.4592 47.3819 54.695 46.0932 55.2514C45.3419 55.5179 44.5773 55.8687 43.805 56.2313L40.0215 58.0281C39.3741 58.3038 38.6899 58.6483 38.0638 58.8789C37.4378 59.1094 36.8236 59.3477 36.2618 59.4936C35.7534 59.6045 35.2396 59.6895 34.7226 59.7484C34.3405 59.743 33.9593 59.7122 33.5814 59.6562L33.0336 59.4727C32.9334 59.4321 32.8551 59.4482 32.7449 59.3586C32.6653 59.2724 32.6058 59.1696 32.5709 59.0576C32.4552 58.7155 32.3823 58.3603 32.3539 58.0003C32.2709 56.8677 32.465 55.7318 32.9192 54.691C33.531 53.1983 34.2779 51.6677 34.8663 50.2104L35.2919 49.1028L35.584 48.3389L36.0673 47.0154C36.6806 45.2642 37.1404 43.463 37.4414 41.6322C37.7508 39.9468 37.7421 38.2185 37.4156 36.5363C37.2189 35.6135 36.8349 34.7409 36.2874 33.9725C36.0187 33.5903 35.7072 33.24 35.359 32.9286L34.1308 31.9156C32.4971 30.6479 30.4853 29.9651 28.4174 29.9768C25.4423 29.9957 22.4327 31.7358 20.2406 34.2772C17.9993 36.8965 16.3471 39.9669 15.396 43.2805C13.8464 48.4548 13.9425 53.8933 14.4518 59.2572C14.5715 60.4365 14.7772 61.5879 14.9303 62.7808C15.5211 67.1995 15.4364 68.6758 14.3489 69.8887C14.1198 70.1833 13.8654 70.4575 13.5886 70.7079C12.6981 71.3396 11.447 69.6682 10.4911 66.3038C9.09272 61.0949 8.54905 55.6936 8.88133 50.3106C9.1635 44.4584 10.8821 38.7657 13.8855 33.7351C15.1164 31.7451 16.635 29.9481 18.392 28.4027C20.3077 26.7187 22.5828 25.4945 25.0437 24.8234C27.6725 24.1701 30.4363 24.313 32.9837 25.234C34.182 25.6547 35.3253 26.2181 36.3888 26.9121L37.1636 27.406L37.8701 27.965C38.3405 28.3683 38.7673 28.6582 39.2755 29.1456L39.219 29.2184Z" fill="#FCF5E6"/>
<path d="M61.2777 29.8222C61.348 30.1649 60.8814 30.128 59.9771 29.9974C59.5741 29.909 59.1927 29.741 58.8555 29.5032C58.706 29.2639 58.585 29.008 58.4949 28.7407C58.5918 27.8632 58.7545 26.9943 58.9815 26.1412C59.1122 25.5919 59.332 25.0677 59.6322 24.5895C60.1821 23.6401 60.6752 22.7125 61.1059 21.8283C61.2135 21.632 61.3633 21.4619 61.5444 21.3302C62.1274 20.8593 62.5422 20.2122 62.7267 19.4857C62.7942 19.3611 62.7866 19.2092 62.707 19.0919C62.7437 18.3394 62.9404 17.6034 63.2841 16.933C63.819 16.5069 63.9653 15.977 64.539 15.4919C64.6053 15.4171 64.5558 15.3252 64.8026 15.2848C65.3508 15.1722 65.3224 14.9842 65.4078 14.8035C65.5144 14.5265 65.656 14.2643 65.8291 14.0232C66.0117 13.872 66.211 13.7421 66.423 13.6361C66.7285 13.547 67.0527 13.544 67.3598 13.6274C67.5624 13.7695 67.8892 13.6718 68.1714 13.6547C68.2595 13.6366 68.377 13.6125 68.4576 13.6571C68.7692 13.9642 69.0338 14.3155 69.2429 14.6998C69.5202 15.0977 69.7371 15.5345 69.8865 15.996L69.944 16.5249C69.9696 16.7014 69.9823 16.8795 69.982 17.0578C69.9724 17.258 69.9485 17.4572 69.9106 17.654C69.8266 18.4874 69.5955 19.3 69.5827 19.4863C69.5699 19.6726 69.3922 19.8009 69.2459 19.9329C69.0996 20.065 69.0394 20.5671 68.8562 21.1658C68.7267 21.571 68.577 21.9695 68.4076 22.3597C68.1214 22.7551 68.0083 23.2477 67.3938 23.435C67.2763 23.4591 67.2455 23.5573 67.2008 23.6379C66.7773 24.3055 66.2677 24.9143 65.6851 25.4487C65.4325 25.7396 65.199 26.0465 64.9861 26.3676C64.9372 26.3776 64.8491 26.3957 64.7946 26.4783C64.7121 26.515 64.6362 26.565 64.57 26.6264C63.9974 27.2659 63.4796 27.9523 63.0222 28.6786C62.9446 28.8475 62.0691 29.3537 62.029 29.5558C61.9888 29.7579 61.23 29.6892 61.2777 29.8222Z" fill="#FCF5E6"/>
<path d="M46.5705 24.9242C46.6469 25.2962 46.1082 25.3558 45.2881 25.1875C44.921 25.0794 44.5826 24.8909 44.2974 24.6358C44.1824 24.4009 44.0817 24.1593 43.9959 23.9122C43.9697 23.7849 44.2258 22.1 44.2014 21.5337C44.2095 21.0062 44.2799 20.4815 44.411 19.9705C44.6191 18.9718 44.7522 17.9589 44.8092 16.9403C44.8156 16.711 44.8741 16.4861 44.9803 16.2828C45.3025 15.5591 45.3902 14.7527 45.2313 13.9766C45.2052 13.8494 45.1791 13.7221 45.0392 13.5876C44.8312 13.1969 44.7081 12.7667 44.6781 12.3252C44.5896 11.8859 44.5834 11.4341 44.6596 10.9925C44.9159 10.2915 45.109 9.56898 45.2366 8.83359C45.2165 8.73569 45.1944 8.628 45.3741 8.50949C45.8234 8.21322 45.7087 8.00212 45.7016 7.76892C45.6893 7.43747 45.7279 7.1061 45.8162 6.78639C45.8624 6.61367 46.1063 6.41056 46.2896 6.20971C46.5904 6.05161 46.9298 5.98193 47.2685 6.00876C47.5218 6.09959 47.8266 5.89421 48.1202 5.83392C48.2181 5.81383 48.3454 5.7877 48.4237 5.77163C49.1436 6.29085 49.766 6.93334 50.262 7.66939L50.3625 8.15887C50.4208 8.44278 50.5579 8.81252 50.6676 9.19808C50.9067 9.96519 51.0971 10.7933 51.1626 10.9635C51.2282 11.1337 51.1351 11.3262 51.0811 11.5107L51.2367 12.8153C51.2968 13.4559 51.3373 14.1005 51.3375 14.1515C51.2362 14.6518 51.3329 15.1727 50.8729 15.665C50.7694 15.7576 50.7797 15.8575 50.7705 15.9615C50.6603 16.8382 50.4237 17.6944 50.068 18.5032C49.8996 18.9255 49.8587 19.3725 49.7099 19.7908C49.724 19.8593 49.6048 19.9246 49.5581 19.9954C49.4899 20.0772 49.433 20.1678 49.3889 20.2648C49.1059 21.2717 48.546 22.1722 48.2569 23.1497C48.1837 23.3892 47.3373 24.2363 47.2543 24.4778C47.1712 24.7193 46.5482 24.7656 46.5705 24.9242Z" fill="#FCF5E6"/>
<path d="M65.9493 49.3495C65.7824 49.6797 65.3423 49.4741 64.7187 49.0206C64.4538 48.7996 64.259 48.5065 64.1578 48.1767C64.205 47.9012 64.2832 47.6319 64.3909 47.3739C65.0885 46.566 65.8781 45.8424 66.7437 45.2178C67.3442 44.7523 68.018 44.3899 68.7374 44.1454C70.1543 43.641 71.615 43.2694 73.1006 43.0355C73.4397 42.9648 73.7905 42.9731 74.1258 43.0597C75.2009 43.278 76.294 43.3952 77.391 43.4097C77.5848 43.4524 77.7877 43.4107 77.949 43.2951C78.2923 42.9798 81.1938 43.4963 81.5184 43.7357C82.3521 44.2685 83.1507 44.8289 83.8984 45.3896C84.0066 45.4694 84.1652 45.4471 84.2057 45.6938C84.2694 46.0479 84.494 46.3524 84.8135 46.5179C85.1366 46.7693 85.4365 47.0492 85.7095 47.3542C85.8534 47.5657 85.9661 47.7968 86.0442 48.0404C86.1394 48.2555 85.8809 48.6861 85.8086 48.7315C85.5935 48.8267 85.6322 49.1146 85.5705 49.3109C85.5534 49.387 85.5274 49.4608 85.4932 49.5308C85.5032 49.5798 84.8534 49.7438 84.1902 49.9922C83.527 50.2405 82.841 50.6262 82.7504 50.5326C82.6597 50.4389 79.7817 50.285 79.478 50.2963C79.1742 50.3076 79.1636 50.1568 79.018 50.0438C78.8724 49.9309 76.6835 50.0027 76.6109 49.9972C76.1653 49.8642 75.7095 50.0292 75.3033 49.5413C75.232 49.4695 75.1301 49.4371 75.0304 49.4545C74.6451 49.4818 74.2579 49.444 73.8852 49.3427C73.5064 49.2368 73.1238 49.1623 72.7372 49.0682C72.3485 49.0193 71.9563 49.0042 71.5649 49.0232C71.4964 49.0372 71.4098 48.9632 71.3332 48.9381C71.2497 48.9053 71.1597 48.8924 71.0704 48.9002C70.1464 48.8741 69.2244 48.998 68.34 49.2669C68.0899 49.306 67.8366 49.3204 67.5837 49.3099C67.3227 49.3238 67.0654 49.3766 66.8201 49.4666C66.6661 49.4705 66.5126 49.4467 66.367 49.3964C66.1646 49.3053 65.9861 49.2807 65.9493 49.3495Z" fill="#FCF5E6"/>
</svg>
