<svg width="130" height="429" viewBox="0 0 130 429" fill="none" xmlns="http://www.w3.org/2000/svg">
<g clip-path="url(#clip0_67_1752)">
<g opacity="0.3">
<path d="M110.028 169.64C110.519 169.64 111.182 169.8 111.526 170.463C111.585 170.676 124.444 193.056 145.917 199.286C148.972 200.393 151.393 201.057 154.016 201.057C157.734 201.258 161.309 201.146 164.968 200.642C165.862 200.441 166.786 201.057 166.786 201.969C166.957 202.964 166.442 203.876 165.459 203.876C161.57 204.58 157.734 204.58 153.785 204.421C150.961 204.421 148.137 203.757 144.851 202.46C121.957 196.011 109.045 173.122 108.524 172.18C108.063 171.387 108.382 170.173 109.187 169.806C109.448 169.646 109.708 169.646 110.022 169.646L110.028 169.64Z" fill="#2D5E4E"/>
<path d="M128.333 167.289C137.042 167.289 147.651 168.817 157.165 174.194C159.243 175.029 161.315 176.355 163.565 178.215C163.997 178.387 164.317 178.718 164.548 179.05C167.283 181.2 169.793 183.942 172.416 187.631C172.848 188.407 172.676 189.609 171.924 189.976C171.172 190.61 170.107 190.456 169.444 189.603C166.963 186.056 164.713 183.563 162.061 181.413L161.398 180.868C159.32 179.21 157.68 178.055 155.75 177.392C135.544 166.116 110.691 172.79 110.519 172.998C109.537 173.24 108.619 172.737 108.388 171.63C108.216 170.806 108.708 169.8 109.543 169.64C110.176 169.468 117.902 167.289 128.339 167.289H128.333Z" fill="#2D5E4E"/>
<path d="M101.148 212.783C101.58 212.783 101.982 212.996 102.332 213.203C102.503 213.404 123.639 229.696 146.899 225.965H147.474C148.658 225.965 149.64 225.924 150.878 225.563C151.399 225.261 152.204 224.929 152.695 224.929C155.951 224.147 159.586 222.909 163.044 220.416C163.796 219.794 164.974 219.883 165.465 220.499C166.128 221.411 165.957 222.578 165.122 223.022C161.084 225.965 156.934 227.375 153.53 228.512H152.382L152.21 228.772H152.038C150.309 229.116 148.812 229.436 147.485 229.436C122.893 233.155 100.929 216.602 100.094 216.01C99.3715 215.347 99.1702 214.151 99.7504 213.618C100.094 212.996 100.704 212.783 101.165 212.783H101.148Z" fill="#2D5E4E"/>
<path d="M139.949 198.854C141.767 198.854 143.667 198.854 145.656 199.025C148.48 199.689 150.878 199.819 153.21 200.642H153.264L155.513 201.264C158.254 202.277 161.623 203.426 165.116 205.919C165.951 206.44 166.128 207.648 165.637 208.43C164.974 209.135 163.991 209.265 163.044 208.803C160.563 206.943 157.739 205.569 154.193 204.503L154.021 204.574L153.039 204.332C150.534 203.206 148.314 202.964 145.402 202.673C143.762 202.389 142.116 202.389 140.446 202.389C119.832 202.389 102.42 215.767 102.332 216.016C101.438 216.437 100.485 216.36 99.7386 215.684C99.1643 214.974 99.3656 213.825 100.082 213.203C100.917 212.451 118.476 198.854 139.955 198.854H139.949Z" fill="#2D5E4E"/>
<path d="M171.001 238.781C171.291 238.781 171.522 238.781 171.836 239.041C172.676 239.414 172.848 240.51 172.499 241.262C169.935 245.212 166.791 248.126 164.66 250.258C162.641 251.928 160.078 253.977 156.934 255.215C156.703 255.416 156.354 255.416 156.182 255.416L155.75 255.878C136.29 265.857 113 260.177 110.028 259.508C109.193 259.508 108.53 258.555 108.53 257.809C108.53 256.826 109.051 256.139 110.028 256.139H110.833C113.284 256.831 135.396 262.28 154.016 252.964C154.359 252.591 154.537 252.591 154.85 252.443L155.342 252.07C157.674 251.288 159.581 249.962 162.233 247.688C165.637 244.922 167.857 242.21 169.444 239.414C169.787 239.041 170.338 238.781 171.001 238.781Z" fill="#2D5E4E"/>
<path d="M158.254 224.55C160.557 224.55 163.038 224.923 165.637 225.474C166.531 225.557 166.963 226.599 166.786 227.381C166.703 228.405 165.637 228.909 164.708 228.778C160.871 227.914 156.928 227.754 153.264 228.518C151.707 228.518 150.73 228.778 149.457 228.909C148.794 229.122 148.131 229.442 147.468 229.442C125.095 235.524 112.011 258.336 111.863 258.567L111.52 259.088L110.685 259.893L110.164 259.692C109.531 259.692 109.098 259.52 108.696 259.319L108.376 259.088V257.82H111.692H110.022L110.164 257.678L108.868 256.985C109.039 256.642 122.532 232.563 146.805 226.184C147.468 225.971 148.042 225.924 148.652 225.77C149.978 225.48 151.393 224.935 153.033 224.935C154.679 224.816 156.348 224.562 158.254 224.562V224.55Z" fill="#2D5E4E"/>
<path d="M64.2171 62.4194C65.1999 62.4194 65.8629 63.2426 65.8629 64.1664C65.8629 64.6579 63.2995 112.367 88.3185 133.005C100.023 142.753 115.907 144.986 135.539 140.183C136.545 140.011 137.557 140.414 137.699 141.421C137.93 142.244 137.208 143.28 136.373 143.351C115.587 148.634 98.6079 146.176 86.0984 135.824C59.6644 113.895 62.37 65.9904 62.37 64.0006C62.5417 63.0057 63.2343 62.4135 64.2171 62.4135V62.4194Z" fill="#2D5E4E"/>
<path d="M68.9178 61.9752C81.6286 61.9752 117.896 64.0065 136.059 85.9244C146.325 98.3964 148.806 115.553 143.495 136.405C143.235 137.4 142.483 137.773 141.417 137.69C140.435 137.4 139.86 136.405 140.032 135.54C145.224 115.802 142.915 99.9243 133.401 88.0445C112.674 63.0116 64.963 65.493 64.5308 65.493C63.6073 65.493 62.7133 64.8297 62.6304 63.8348C62.5476 62.8399 63.2935 62.1884 64.2171 62.1884C64.5368 62.1884 66.2951 61.9693 68.9178 61.9693V61.9752Z" fill="#2D5E4E"/>
<path d="M93.0429 88.0445C103.972 88.0445 115.013 92.8888 123.284 101.18C132.567 110.335 137.208 122.648 136.284 134.214L136.142 135.741L134.727 135.872H131.815C121.206 135.872 110.164 131.187 101.805 122.896C92.6403 113.699 87.91 101.18 88.804 89.6908V88.3761L90.3906 88.157C91.3733 88.0445 92.2081 88.0445 93.0429 88.0445ZM133.088 132.514C133.407 122.393 128.849 111.709 120.951 103.75C113.284 96.1223 103.161 91.5208 93.0429 91.5208H92.0601C91.7167 101.642 96.2694 112.373 104.137 120.445C112.005 128.161 121.951 132.514 131.815 132.514H133.082H133.088Z" fill="#2D5E4E"/>
<path d="M1.88846 212.741C2.40944 212.741 2.78242 212.996 3.1258 213.404C3.38629 213.618 32.8751 246.539 63.8677 246.539C65.0221 246.539 66.3483 246.539 67.6152 246.249C82.5224 244.922 95.6062 235.174 106.132 217.757C106.653 216.934 107.719 216.602 108.524 217.177C109.276 217.68 109.531 218.663 109.045 219.327C98.0039 237.827 84.1683 248.12 67.9349 249.624C66.6088 249.766 65.0221 249.766 63.696 249.766C31.2944 249.766 1.88846 217.177 0.562321 215.678C0.0709394 214.968 0.0709393 213.819 0.822813 213.197C1.14251 212.996 1.48588 212.735 1.88846 212.735V212.741Z" fill="#2D5E4E"/>
<path d="M63.6961 178.967C65.111 178.967 66.6088 179.05 68.1659 179.21C84.34 180.708 98.0928 190.977 109.045 209.561C109.537 210.455 109.276 211.367 108.524 211.794C107.719 212.327 106.565 212.167 106.133 211.29C95.7839 193.761 82.8363 184.096 67.8462 182.568C66.52 182.408 65.0222 182.408 63.6961 182.408C32.8752 182.408 3.29754 214.968 3.06665 215.341C2.40358 216.004 1.36753 216.004 0.556459 215.471C-0.195415 214.968 -0.195415 213.813 0.556459 212.99C1.71091 211.622 31.2885 178.961 63.6901 178.961L63.6961 178.967Z" fill="#2D5E4E"/>
<path d="M69.9242 198.854C82.8422 198.854 95.032 204.332 102.503 212.996L103.309 214.151L102.503 215.347C95.0379 223.987 82.8422 229.323 70.1018 229.323C57.3614 229.323 45.0768 224.147 37.4397 215.347L36.5161 214.151L37.4397 212.996C45.0768 204.089 56.9292 198.854 69.9301 198.854H69.9242ZM98.7558 214.151C92.0659 206.854 81.3443 202.383 69.9242 202.383C58.4803 202.383 48.0429 206.736 40.98 214.151C47.9008 221.607 58.5632 225.918 70.0958 225.918C81.6285 225.918 92.0659 221.607 98.7499 214.151H98.7558Z" fill="#2D5E4E"/>
<path d="M141.767 291.47C142.489 291.47 143.235 291.754 143.495 292.595C148.711 313.53 146.148 330.574 135.71 342.975C114 369.246 65.999 366.711 63.9565 366.622C63.1217 366.622 62.3699 365.84 62.3699 364.804C62.5416 363.88 63.2342 363.128 64.1282 363.128H64.217C64.5367 363.128 112.449 365.669 133.147 340.606C142.779 329.159 145.082 313.24 140.038 293.341C139.866 292.595 140.44 291.494 141.423 291.47H141.767Z" fill="#2D5E4E"/>
<path d="M116.398 282.847C122.686 282.847 129.257 283.801 136.379 285.53C137.214 285.82 137.936 286.709 137.705 287.55C137.474 288.556 136.722 289.048 135.544 288.847C115.913 283.884 100.029 286.022 88.3243 295.799C63.1277 316.361 65.5491 364.176 65.5491 364.691C65.5491 365.674 64.7972 366.279 63.9625 366.279C63.1277 366.622 62.1449 365.846 62.1449 364.81C61.9732 362.85 59.5815 314.75 86.0154 293.116C94.292 286.282 104.291 282.853 116.398 282.853V282.847Z" fill="#2D5E4E"/>
<path d="M131.329 292.678C132.223 292.678 133.407 292.678 134.212 292.88H135.538L135.858 294.295C136.723 306.062 131.998 317.972 122.887 327.311C113.746 336.455 101.58 341.53 89.9051 340.405L88.4073 340.144L88.3184 338.788C87.312 326.991 92.066 314.94 101.438 305.855C109.714 297.374 120.637 292.678 131.335 292.678H131.329ZM132.572 296.137H131.335C121.478 296.137 111.443 300.489 103.747 308.188C95.6181 316.349 91.32 326.701 91.6397 336.97H92.6462C102.651 336.97 112.68 332.558 120.377 324.711C128.334 316.811 132.744 306.228 132.572 296.137Z" fill="#2D5E4E"/>
<path d="M159.581 51.8069C166.294 51.8069 173.819 53.7671 181.865 57.658C182.759 58.0192 183.043 58.9431 182.759 59.8077C182.439 60.8026 181.373 61.2231 180.367 60.8026C167.449 54.5903 156.354 53.6664 147.474 58.0192C134.212 64.652 130.406 81.4768 130.406 81.4768C130.175 82.4836 129.34 83.1054 128.505 82.8152C127.522 82.6849 127.007 81.8203 127.179 80.7839C127.268 80.1088 131.069 62.4134 145.917 54.9575C149.984 53.0091 154.679 51.801 159.581 51.801V51.8069Z" fill="#2D5E4E"/>
<path d="M152.287 27.6978C162.636 27.6978 174.488 31.0853 187.66 37.3154C188.584 37.647 188.809 38.642 188.412 39.6665C187.921 40.4601 186.944 40.8805 186.103 40.3298C164.885 30.0489 147.332 28.4085 134.212 35.598C115.416 45.7189 111.78 70.5327 111.698 70.8407C111.585 71.5454 110.833 72.256 110.028 72.256H109.856C108.874 72.0369 108.211 71.2197 108.388 70.2662C108.53 69.2298 112.195 43.3619 132.578 32.5007C138.457 29.4271 145.088 27.6978 152.299 27.6978H152.287Z" fill="#2D5E4E"/>
<path d="M159.095 38.4702C166.792 38.4702 175.411 40.3298 184.866 43.8179C185.76 44.191 186.251 45.1741 185.938 46.0506C185.594 47.0455 184.523 47.3357 183.605 47.0455C166.306 40.3238 152.038 40.1699 140.707 46.3407C124.704 55.0759 120.643 74.7315 120.643 74.7315C120.383 75.8152 119.406 76.52 118.482 76.2298C117.588 76.0166 117.097 75.0631 117.245 74.2281C117.417 73.322 121.567 53.015 139.126 43.356C144.922 40.1699 151.494 38.4702 159.107 38.4702H159.095Z" fill="#2D5E4E"/>
<path d="M81.0247 126.296C81.8595 126.296 82.5226 126.87 82.5226 127.563C83.0139 128.487 82.5226 129.523 81.6286 129.855C68.1067 134.699 59.5756 141.995 56.4024 151.328C51.7609 165.417 60.9551 179.701 61.2155 180.033C61.476 180.714 61.3043 181.751 60.5525 182.236C59.6585 182.947 58.7054 182.568 58.1607 181.745C57.7285 181.069 47.895 165.915 53.1758 150.239C56.6629 139.757 65.8629 131.868 80.5334 126.621C80.6222 126.491 80.8767 126.29 81.0247 126.29V126.296Z" fill="#2D5E4E"/>
<path d="M70.7589 108.186C71.5108 108.186 72.0851 108.677 72.4048 109.34C72.7482 110.164 72.2627 111.2 71.2207 111.549C48.8777 119.248 35.4446 130.352 31.2945 144.773C25.096 165.293 40.0032 185.262 40.2578 185.594C40.832 186.275 40.6603 187.471 39.9381 187.975C39.1862 188.549 38.0909 188.419 37.6055 187.643C36.8003 186.802 21.1708 165.784 27.9199 143.618C32.6502 128.38 46.7168 116.423 70.1847 108.192H70.7589V108.186Z" fill="#2D5E4E"/>
<path d="M73.583 114.676C74.246 114.676 74.9979 115.049 75.14 115.802C75.6314 116.595 75.14 117.43 74.246 117.922C57.4088 125.431 46.9477 135.54 43.4251 147.811C38.3515 165.417 49.304 181.999 49.3632 182.242C49.7657 182.953 49.5348 183.989 48.8718 184.522C48.037 185.097 46.9418 184.937 46.3912 184.102C46.0478 183.438 34.5447 166.122 40.1631 146.816C44.0527 133.509 54.9815 122.648 72.9732 114.895C73.062 114.676 73.3757 114.676 73.577 114.676H73.583Z" fill="#2D5E4E"/>
<path d="M59.1434 246.249C59.3151 246.249 59.6644 246.249 59.8953 246.332C60.6471 246.705 61.2214 247.717 60.6471 248.552C54.5907 261.676 53.6967 272.78 57.9948 281.485C64.7972 294.982 81.3444 298.618 81.522 298.618C82.5284 298.819 83.0198 299.737 82.8481 300.697C82.5284 301.532 81.9542 302.337 80.8885 302.023C80.0242 301.852 62.3818 297.955 54.9992 283.191C50.038 273.443 50.9616 261.303 57.6811 247.06C57.8232 246.539 58.4862 246.249 59.1493 246.249H59.1434Z" fill="#2D5E4E"/>
<path d="M39.0204 240.51C39.1921 240.51 39.3401 240.51 39.6835 240.652C40.5182 241.055 40.8379 242.032 40.5182 243.074C30.1696 264.388 28.5534 281.657 35.4446 294.84C45.734 313.672 70.5872 317.308 70.9069 317.45C71.9134 317.45 72.4048 318.286 72.4048 319.322C72.0851 320.216 71.0786 320.879 70.4156 320.791C69.2611 320.506 43.4902 316.9 32.6502 296.451C25.096 282.149 26.5938 263.837 37.4338 241.458C37.6943 240.824 38.3573 240.504 39.0204 240.504V240.51Z" fill="#2D5E4E"/>
<path d="M45.5623 243.074C45.734 243.074 45.882 243.074 46.1365 243.187C46.9417 243.56 47.4627 244.573 47.143 245.408C40.5123 262.683 40.1689 277.156 46.3911 288.379C55.3307 304.528 74.7018 308.538 74.9919 308.538C75.7971 308.739 76.4601 309.58 76.2884 310.557C76.1168 311.422 75.3945 312.026 74.1275 311.937C73.3757 311.706 53.1106 307.442 43.4251 290.078C36.5931 277.825 36.7944 262.511 43.9697 244.253C44.2302 243.56 44.8045 243.074 45.5564 243.074H45.5623Z" fill="#2D5E4E"/>
<path d="M128.245 346.315C128.997 346.315 129.66 346.777 129.914 347.351C134.875 361.049 142.11 369.53 151.192 372.526C165.637 377.371 179.875 368.197 179.964 368.026C180.686 367.51 181.722 367.652 182.445 368.576C182.847 369.24 182.705 370.424 181.722 370.85C181.201 371.224 166.128 381.149 150.298 375.926C139.86 372.438 131.992 363.294 126.516 348.53C126.256 347.695 126.776 346.771 127.67 346.51C127.842 346.309 128.014 346.309 128.245 346.309V346.315Z" fill="#2D5E4E"/>
<path d="M109.85 356.584C110.514 356.584 111.265 357.105 111.52 357.768C119.305 380.03 130.4 393.728 144.845 397.885C165.288 404.145 185.434 389.002 185.582 388.771C186.246 388.309 187.43 388.51 188.176 389.203C188.578 389.866 188.578 390.992 187.743 391.536C186.849 392.2 165.862 407.828 143.75 401.113C128.328 396.381 116.392 382.28 108.376 358.805C108.057 357.911 108.518 356.933 109.27 356.726C109.531 356.584 109.702 356.584 109.845 356.584H109.85Z" fill="#2D5E4E"/>
<path d="M116.398 353.729C117.091 353.729 117.582 354.073 117.985 354.736C125.421 371.697 135.544 382.073 147.912 385.65C165.643 390.755 182.042 379.769 182.19 379.769C182.853 379.278 184.126 379.455 184.612 380.261C185.275 381.155 184.925 381.99 184.12 382.624C183.368 383.115 165.957 394.563 146.988 388.854C133.466 385.164 122.804 374.06 114.93 356.069C114.409 355.257 114.93 354.369 115.735 353.907C115.907 353.735 116.167 353.735 116.398 353.735V353.729Z" fill="#2D5E4E"/>
<path d="M113.829 143.28C121.294 143.28 128.849 146.176 134.645 151.986C139.777 157.12 142.489 163.463 142.773 170.344L139.428 170.457C139.286 164.345 136.604 158.909 132.223 154.337C121.957 144.435 105.789 144.098 95.926 154.005C91.1424 158.909 88.4901 165.281 88.4901 172.086C88.4901 178.89 91.2312 185.464 96.1865 190.456C105.037 199.44 119.625 200.216 129.831 192.476L131.821 195.158C120.229 204.083 103.972 203.088 93.7059 192.807C88.1408 187.217 84.9972 179.873 84.9972 172.091C84.9972 164.31 88.1409 157.126 93.3862 151.66C98.9216 146.182 106.357 143.28 113.823 143.28H113.829Z" fill="#2D5E4E"/>
<path d="M113.829 226.925C121.034 226.925 127.522 229.317 132.567 233.96L130.258 236.495C125.936 232.426 120.223 230.093 113.823 230.093C99.496 230.093 87.9041 241.659 87.9041 255.789C87.9041 269.919 99.496 281.166 113.823 281.166H113.995C126.504 281.166 137.202 271.649 139.02 258.845L142.335 259.508C140.435 273.869 128.239 284.594 113.995 284.594H113.823C97.5896 284.594 84.5059 271.649 84.5059 255.789C84.5059 239.93 97.5956 226.919 113.823 226.919L113.829 226.925Z" fill="#2D5E4E"/>
</g>
</g>
<defs>
<clipPath id="clip0_67_1752">
<rect width="429" height="429" fill="white"/>
</clipPath>
</defs>
</svg>
